<svg width="11" height="16" viewBox="0 0 11 16" fill="none" xmlns="http://www.w3.org/2000/svg">
<path d="M5.46 12.46C5.23333 12.46 5.04667 12.3867 4.9 12.24C4.75333 12.0933 4.68 11.9 4.68 11.66C4.68 11.1267 4.80667 10.5533 5.06 9.94C5.32667 9.32667 5.69333 8.8 6.16 8.36C6.57333 7.97333 6.96667 7.6 7.34 7.24C7.71333 6.88 8.01333 6.48 8.24 6.04C8.48 5.6 8.6 5.04667 8.6 4.38C8.6 3.86 8.47333 3.38667 8.22 2.96C7.96667 2.52 7.60667 2.17333 7.14 1.92C6.68667 1.66667 6.15333 1.54 5.54 1.54C4.87333 1.54 4.3 1.68 3.82 1.96C3.34 2.22667 2.96667 2.6 2.7 3.08C2.44667 3.56 2.32 4.11333 2.32 4.74C2.32 4.96667 2.24667 5.15333 2.1 5.3C1.96667 5.43333 1.78667 5.5 1.56 5.5C1.33333 5.5 1.14667 5.43333 1 5.3C0.853333 5.15333 0.78 4.96667 0.78 4.74C0.78 3.82 0.98 3.01333 1.38 2.32C1.78 1.61333 2.33333 1.06 3.04 0.66C3.76 0.259999 4.59333 0.059999 5.54 0.059999C6.42 0.059999 7.20667 0.253333 7.9 0.64C8.59333 1.01333 9.14 1.53333 9.54 2.2C9.94 2.85333 10.14 3.60667 10.14 4.46C10.14 5.20667 10.0067 5.84 9.74 6.36C9.47333 6.88 9.12 7.36 8.68 7.8C8.25333 8.22667 7.78 8.68 7.26 9.16C6.84667 9.53333 6.57333 9.95333 6.44 10.42C6.30667 10.8867 6.24 11.3 6.24 11.66C6.24 11.9 6.16667 12.0933 6.02 12.24C5.87333 12.3867 5.68667 12.46 5.46 12.46ZM5.46 16C5.12667 16 4.84667 15.8867 4.62 15.66C4.40667 15.4333 4.3 15.16 4.3 14.84C4.3 14.5067 4.41333 14.2267 4.64 14C4.86667 13.7733 5.14 13.66 5.46 13.66C5.78 13.66 6.05333 13.7733 6.28 14C6.52 14.2267 6.64 14.5067 6.64 14.84C6.64 15.16 6.52 15.4333 6.28 15.66C6.05333 15.8867 5.78 16 5.46 16Z" fill="black"/>
</svg>
