<svg width="39" height="38" viewBox="0 0 39 38" fill="none" xmlns="http://www.w3.org/2000/svg">
<g clip-path="url(#clip0_12_3)">
<path d="M39 7.21524C37.5651 7.83591 36.023 8.25391 34.4045 8.44233C36.0571 7.47808 37.3262 5.95016 37.9226 4.12933C36.3773 5.02233 34.6645 5.67149 32.8412 6.02141C31.3836 4.50616 29.302 3.55933 27.001 3.55933C21.8351 3.55933 18.0391 8.25549 19.2059 13.1306C12.558 12.806 6.6625 9.70266 2.71537 4.98591C0.619125 8.48983 1.62825 13.0736 5.19025 15.3947C3.8805 15.3536 2.6455 15.0037 1.56813 14.4194C1.48037 18.031 4.13725 21.4098 7.98525 22.1619C6.85913 22.4596 5.62575 22.5292 4.37125 22.2949C5.3885 25.3919 8.34275 27.645 11.8462 27.7083C8.4825 30.2781 4.2445 31.426 0 30.9383C3.54087 33.1502 7.748 34.4407 12.2655 34.4407C27.1213 34.4407 35.5144 22.2157 35.0074 11.2512C36.5706 10.1507 37.9275 8.77799 39 7.21524Z" fill="white"/>
</g>
<defs>
<clipPath id="clip0_12_3">
<rect width="39" height="38" fill="white"/>
</clipPath>
</defs>
</svg>
