<svg width="339" height="38" viewBox="0 0 339 38" fill="none" xmlns="http://www.w3.org/2000/svg">
<path d="M3.67 4.825L29.815 32.725L30.22 37.63L4.075 9.775L3.67 4.825ZM3.76 33.805V37H0.0250001V36.55C0.0250001 36.55 0.16 36.55 0.43 36.55C0.7 36.55 0.85 36.55 0.88 36.55C1.63 36.55 2.275 36.28 2.815 35.74C3.355 35.2 3.625 34.555 3.625 33.805H3.76ZM5.695 33.805C5.695 34.555 5.965 35.2 6.505 35.74C7.045 36.28 7.69 36.55 8.44 36.55C8.47 36.55 8.62 36.55 8.89 36.55C9.16 36.55 9.295 36.55 9.295 36.55V37H5.56V33.805H5.695ZM3.67 4.825L5.65 7.345L5.695 37H3.625V10.45C3.625 8.92 3.55 7.6 3.4 6.49C3.28 5.38 3.22 4.825 3.22 4.825H3.67ZM30.22 5.5V31.87C30.22 32.83 30.25 33.76 30.31 34.66C30.37 35.53 30.43 36.25 30.49 36.82C30.58 37.36 30.625 37.63 30.625 37.63H30.22L28.195 35.245V5.5H30.22ZM33.82 5.5V5.95C33.82 5.95 33.685 5.95 33.415 5.95C33.145 5.95 33.01 5.95 33.01 5.95C32.26 5.95 31.615 6.22 31.075 6.76C30.535 7.27 30.25 7.915 30.22 8.695H30.085V5.5H33.82ZM24.55 5.5H28.285V8.695H28.195C28.165 7.915 27.88 7.27 27.34 6.76C26.83 6.22 26.185 5.95 25.405 5.95C25.405 5.95 25.27 5.95 25 5.95C24.73 5.95 24.58 5.95 24.55 5.95V5.5ZM52.1093 9.37C54.2093 9.37 56.1743 9.715 58.0043 10.405C59.8643 11.065 61.4843 12.025 62.8643 13.285C64.2743 14.545 65.3693 16.045 66.1493 17.785C66.9293 19.495 67.3193 21.4 67.3193 23.5C67.3193 25.6 66.9293 27.52 66.1493 29.26C65.3693 30.97 64.2743 32.455 62.8643 33.715C61.4843 34.975 59.8643 35.95 58.0043 36.64C56.1743 37.3 54.2093 37.63 52.1093 37.63C50.0093 37.63 48.0443 37.3 46.2143 36.64C44.3843 35.95 42.7643 34.975 41.3543 33.715C39.9743 32.455 38.8943 30.97 38.1143 29.26C37.3343 27.52 36.9443 25.6 36.9443 23.5C36.9443 21.4 37.3343 19.495 38.1143 17.785C38.8943 16.045 39.9743 14.545 41.3543 13.285C42.7643 12.025 44.3843 11.065 46.2143 10.405C48.0443 9.715 50.0093 9.37 52.1093 9.37ZM52.1093 36.28C54.3293 36.28 56.3393 35.74 58.1393 34.66C59.9393 33.58 61.3643 32.08 62.4143 30.16C63.4643 28.24 63.9893 26.02 63.9893 23.5C63.9893 20.95 63.4643 18.73 62.4143 16.84C61.3643 14.92 59.9393 13.42 58.1393 12.34C56.3393 11.26 54.3293 10.72 52.1093 10.72C49.9193 10.72 47.9243 11.26 46.1243 12.34C44.3243 13.42 42.8993 14.92 41.8493 16.84C40.7993 18.73 40.2743 20.95 40.2743 23.5C40.2743 26.02 40.7993 28.24 41.8493 30.16C42.8993 32.08 44.3243 33.58 46.1243 34.66C47.9243 35.74 49.9193 36.28 52.1093 36.28ZM83.3791 37.63L71.0041 10.27H74.5591L84.1441 33.625L83.3791 37.63ZM83.3791 37.63L83.0641 34.525L93.3691 10.135H96.2041L85.5391 32.995C85.5391 32.995 85.4491 33.175 85.2691 33.535C85.1191 33.895 84.9241 34.345 84.6841 34.885C84.4741 35.395 84.2791 35.905 84.0991 36.415C83.9191 36.925 83.8141 37.33 83.7841 37.63H83.3791ZM92.0641 13.285C92.3941 12.385 92.3491 11.695 91.9291 11.215C91.5091 10.705 91.0291 10.45 90.4891 10.45H90.1741V10H98.7241V10.45C98.7241 10.45 98.6641 10.45 98.5441 10.45C98.4241 10.45 98.3641 10.45 98.3641 10.45C97.7341 10.45 97.0891 10.675 96.4291 11.125C95.7691 11.545 95.1991 12.265 94.7191 13.285H92.0641ZM75.7741 13.285H72.3541C71.9041 12.265 71.3491 11.545 70.6891 11.125C70.0291 10.675 69.3991 10.45 68.7991 10.45C68.7991 10.45 68.7391 10.45 68.6191 10.45C68.4991 10.45 68.4391 10.45 68.4391 10.45V10H77.6641V10.45H77.3041C76.7941 10.45 76.3291 10.705 75.9091 11.215C75.5191 11.695 75.4741 12.385 75.7741 13.285ZM109.8 9.37L122.175 36.73H118.62L109.035 13.375L109.8 9.37ZM101.115 33.715C100.785 34.615 100.83 35.32 101.25 35.83C101.67 36.31 102.15 36.55 102.69 36.55H103.05V37H94.4547V36.55C94.4547 36.55 94.5147 36.55 94.6347 36.55C94.7547 36.55 94.8147 36.55 94.8147 36.55C95.4447 36.55 96.0897 36.34 96.7497 35.92C97.4097 35.47 97.9797 34.735 98.4597 33.715H101.115ZM109.8 9.37L110.115 12.475L99.8097 36.865H96.9747L107.64 14.005C107.64 14.005 107.715 13.825 107.865 13.465C108.045 13.105 108.24 12.67 108.45 12.16C108.69 11.62 108.9 11.095 109.08 10.585C109.26 10.075 109.365 9.67 109.395 9.37H109.8ZM115.11 26.515V27.865H103.185V26.515H115.11ZM117.405 33.715H120.825C121.275 34.735 121.83 35.47 122.49 35.92C123.15 36.34 123.78 36.55 124.38 36.55C124.38 36.55 124.44 36.55 124.56 36.55C124.68 36.55 124.74 36.55 124.74 36.55V37H115.515V36.55H115.875C116.385 36.55 116.85 36.31 117.27 35.83C117.69 35.32 117.735 34.615 117.405 33.715ZM135.049 9.37C135.889 9.37 136.624 9.4 137.254 9.46C137.884 9.52 138.424 9.595 138.874 9.685C139.354 9.745 139.759 9.835 140.089 9.955C140.449 10.045 140.764 10.135 141.034 10.225L141.079 14.68H140.539C140.539 13.45 140.119 12.49 139.279 11.8C138.439 11.08 137.134 10.72 135.364 10.72C133.864 10.72 132.574 11.14 131.494 11.98C130.444 12.79 129.934 13.795 129.964 14.995C129.964 15.385 130.009 15.79 130.099 16.21C130.219 16.6 130.399 16.99 130.639 17.38C130.909 17.77 131.269 18.16 131.719 18.55L140.809 25.57C141.499 26.14 142.009 26.875 142.339 27.775C142.669 28.645 142.849 29.515 142.879 30.385C142.909 31.705 142.564 32.92 141.844 34.03C141.124 35.14 140.149 36.025 138.919 36.685C137.719 37.315 136.384 37.63 134.914 37.63C134.044 37.63 133.099 37.555 132.079 37.405C131.089 37.255 130.159 37.03 129.289 36.73C128.419 36.4 127.699 35.995 127.129 35.515C127.039 35.095 126.994 34.57 126.994 33.94C126.994 33.28 127.039 32.59 127.129 31.87C127.249 31.15 127.399 30.505 127.579 29.935H128.119C127.999 31.285 128.194 32.44 128.704 33.4C129.214 34.36 129.964 35.095 130.954 35.605C131.944 36.085 133.099 36.31 134.419 36.28C136.279 36.22 137.734 35.755 138.784 34.885C139.864 33.985 140.404 32.8 140.404 31.33C140.404 30.61 140.269 29.965 139.999 29.395C139.759 28.795 139.354 28.24 138.784 27.73L129.784 20.8C128.944 20.08 128.374 19.285 128.074 18.415C127.774 17.545 127.624 16.72 127.624 15.94C127.624 14.71 127.954 13.6 128.614 12.61C129.274 11.62 130.159 10.84 131.269 10.27C132.409 9.67 133.669 9.37 135.049 9.37ZM140.989 9.775L141.034 10.585H137.839V9.775H140.989ZM165.06 5.5H171C172.92 5.5 174.57 5.845 175.95 6.535C177.33 7.225 178.395 8.23 179.145 9.55C179.895 10.84 180.27 12.385 180.27 14.185C180.27 15.565 180 16.81 179.46 17.92C178.92 19 178.2 19.915 177.3 20.665C176.4 21.415 175.38 21.985 174.24 22.375C173.1 22.735 171.915 22.87 170.685 22.78C169.485 22.69 168.315 22.345 167.175 21.745V21.295C167.175 21.295 167.43 21.34 167.94 21.43C168.45 21.49 169.095 21.505 169.875 21.475C170.685 21.415 171.525 21.25 172.395 20.98C173.295 20.68 174.12 20.17 174.87 19.45C175.65 18.73 176.235 17.725 176.625 16.435C176.715 16.105 176.79 15.7 176.85 15.22C176.91 14.71 176.925 14.215 176.895 13.735C176.865 11.665 176.325 10 175.275 8.74C174.225 7.48 172.74 6.85 170.82 6.85H165.51C165.51 6.85 165.465 6.745 165.375 6.535C165.315 6.295 165.24 6.07 165.15 5.86C165.09 5.62 165.06 5.5 165.06 5.5ZM165.645 5.5V37H162.72V5.5H165.645ZM162.855 33.715V37H159.255V36.55C159.255 36.55 159.345 36.55 159.525 36.55C159.735 36.55 159.84 36.55 159.84 36.55C160.62 36.55 161.28 36.28 161.82 35.74C162.39 35.17 162.69 34.495 162.72 33.715H162.855ZM162.855 8.785H162.72C162.72 8.005 162.435 7.345 161.865 6.805C161.295 6.235 160.62 5.95 159.84 5.95C159.84 5.95 159.75 5.95 159.57 5.95C159.39 5.95 159.3 5.95 159.3 5.95L159.255 5.5H162.855V8.785ZM165.51 33.715H165.645C165.675 34.495 165.96 35.17 166.5 35.74C167.07 36.28 167.745 36.55 168.525 36.55C168.525 36.55 168.615 36.55 168.795 36.55C169.005 36.55 169.11 36.55 169.11 36.55V37H165.51V33.715ZM193.603 9.37L205.978 36.73H202.423L192.838 13.375L193.603 9.37ZM184.918 33.715C184.588 34.615 184.633 35.32 185.053 35.83C185.473 36.31 185.953 36.55 186.493 36.55H186.853V37H178.258V36.55C178.258 36.55 178.318 36.55 178.438 36.55C178.558 36.55 178.618 36.55 178.618 36.55C179.248 36.55 179.893 36.34 180.553 35.92C181.213 35.47 181.783 34.735 182.263 33.715H184.918ZM193.603 9.37L193.918 12.475L183.613 36.865H180.778L191.443 14.005C191.443 14.005 191.518 13.825 191.668 13.465C191.848 13.105 192.043 12.67 192.253 12.16C192.493 11.62 192.703 11.095 192.883 10.585C193.063 10.075 193.168 9.67 193.198 9.37H193.603ZM198.913 26.515V27.865H186.988V26.515H198.913ZM201.208 33.715H204.628C205.078 34.735 205.633 35.47 206.293 35.92C206.953 36.34 207.583 36.55 208.183 36.55C208.183 36.55 208.243 36.55 208.363 36.55C208.483 36.55 208.543 36.55 208.543 36.55V37H199.318V36.55H199.678C200.188 36.55 200.653 36.31 201.073 35.83C201.493 35.32 201.538 34.615 201.208 33.715ZM193.108 6.805C193.738 6.115 194.368 5.44 194.998 4.78C195.628 4.09 196.258 3.43 196.888 2.8C197.548 2.14 198.193 1.51 198.823 0.909998C199.153 1.27 199.483 1.645 199.813 2.035C200.143 2.425 200.428 2.845 200.668 3.295C199.858 3.745 199.048 4.195 198.238 4.645C197.428 5.095 196.618 5.53 195.808 5.95C195.028 6.34 194.233 6.73 193.423 7.12L193.108 6.805ZM224.673 9.37C226.053 9.37 227.343 9.475 228.543 9.685C229.773 9.865 230.928 10.165 232.008 10.585C233.118 10.975 234.168 11.485 235.158 12.115L236.148 18.46H235.743C235.323 16.69 234.633 15.235 233.673 14.095C232.743 12.955 231.528 12.115 230.028 11.575C228.528 11.005 226.728 10.72 224.628 10.72C222.348 10.72 220.338 11.245 218.598 12.295C216.888 13.315 215.553 14.785 214.593 16.705C213.633 18.595 213.153 20.86 213.153 23.5C213.153 26.11 213.633 28.375 214.593 30.295C215.553 32.215 216.903 33.7 218.643 34.75C220.383 35.77 222.393 36.28 224.673 36.28C225.933 36.28 227.133 36.145 228.273 35.875C229.413 35.605 230.508 35.185 231.558 34.615C232.638 34.015 233.643 33.265 234.573 32.365L234.618 26.38C234.648 25.81 234.468 25.375 234.078 25.075C233.718 24.775 233.208 24.625 232.548 24.625H231.918V24.175H240.153V24.625H239.523C238.173 24.625 237.498 25.225 237.498 26.425V31.825C236.808 32.695 235.863 33.58 234.663 34.48C233.463 35.38 232.023 36.13 230.343 36.73C228.693 37.33 226.803 37.63 224.673 37.63C221.703 37.6 219.108 37.015 216.888 35.875C214.698 34.735 212.988 33.115 211.758 31.015C210.528 28.915 209.913 26.41 209.913 23.5C209.913 20.56 210.528 18.04 211.758 15.94C212.988 13.84 214.713 12.22 216.933 11.08C219.153 9.94 221.733 9.37 224.673 9.37ZM249.402 10V37H246.567V10H249.402ZM246.702 34.12V37H242.877V36.55C242.877 36.55 242.982 36.55 243.192 36.55C243.402 36.55 243.507 36.55 243.507 36.55C244.347 36.55 245.052 36.31 245.622 35.83C246.222 35.35 246.537 34.78 246.567 34.12H246.702ZM249.267 34.12H249.402C249.432 34.78 249.732 35.35 250.302 35.83C250.902 36.31 251.622 36.55 252.462 36.55C252.462 36.55 252.552 36.55 252.732 36.55C252.942 36.55 253.047 36.55 253.047 36.55L253.092 37H249.267V34.12ZM249.267 12.88V10H253.092L253.047 10.45C253.047 10.45 252.942 10.45 252.732 10.45C252.552 10.45 252.462 10.45 252.462 10.45C251.622 10.45 250.902 10.69 250.302 11.17C249.732 11.62 249.432 12.19 249.402 12.88H249.267ZM246.702 12.88H246.567C246.537 12.19 246.222 11.62 245.622 11.17C245.052 10.69 244.347 10.45 243.507 10.45C243.477 10.45 243.357 10.45 243.147 10.45C242.967 10.45 242.877 10.45 242.877 10.45V10H246.702V12.88ZM260.38 9.325L285.31 32.815L285.76 37.63L260.83 14.005L260.38 9.325ZM260.47 34.21V37H257.095V36.55C257.095 36.55 257.215 36.55 257.455 36.55C257.725 36.55 257.86 36.55 257.86 36.55C258.55 36.55 259.135 36.325 259.615 35.875C260.095 35.425 260.335 34.87 260.335 34.21H260.47ZM262.36 34.21C262.36 34.87 262.6 35.425 263.08 35.875C263.59 36.325 264.175 36.55 264.835 36.55C264.835 36.55 264.955 36.55 265.195 36.55C265.465 36.55 265.6 36.55 265.6 36.55V37H262.225V34.21H262.36ZM260.38 9.325L262.315 11.845L262.36 37H260.335V14.95C260.335 13.42 260.26 12.1 260.11 10.99C259.99 9.88 259.93 9.325 259.93 9.325H260.38ZM285.76 10V31.87C285.76 32.83 285.79 33.76 285.85 34.66C285.91 35.53 285.97 36.25 286.03 36.82C286.12 37.36 286.165 37.63 286.165 37.63H285.76L283.78 35.245V10H285.76ZM285.625 12.79V10H289V10.45C289 10.45 288.865 10.45 288.595 10.45C288.355 10.45 288.235 10.45 288.235 10.45C287.575 10.45 286.99 10.675 286.48 11.125C286 11.575 285.76 12.13 285.76 12.79H285.625ZM283.78 12.79C283.75 12.13 283.495 11.575 283.015 11.125C282.535 10.675 281.95 10.45 281.26 10.45C281.26 10.45 281.125 10.45 280.855 10.45C280.615 10.45 280.495 10.45 280.495 10.45V10H283.87V12.79H283.78ZM305.708 9.37L318.083 36.73H314.528L304.943 13.375L305.708 9.37ZM297.023 33.715C296.693 34.615 296.738 35.32 297.158 35.83C297.578 36.31 298.058 36.55 298.598 36.55H298.958V37H290.363V36.55C290.363 36.55 290.423 36.55 290.543 36.55C290.663 36.55 290.723 36.55 290.723 36.55C291.353 36.55 291.998 36.34 292.658 35.92C293.318 35.47 293.888 34.735 294.368 33.715H297.023ZM305.708 9.37L306.023 12.475L295.718 36.865H292.883L303.548 14.005C303.548 14.005 303.623 13.825 303.773 13.465C303.953 13.105 304.148 12.67 304.358 12.16C304.598 11.62 304.808 11.095 304.988 10.585C305.168 10.075 305.273 9.67 305.303 9.37H305.708ZM311.018 26.515V27.865H299.093V26.515H311.018ZM313.313 33.715H316.733C317.183 34.735 317.738 35.47 318.398 35.92C319.058 36.34 319.688 36.55 320.288 36.55C320.288 36.55 320.348 36.55 320.468 36.55C320.588 36.55 320.648 36.55 320.648 36.55V37H311.423V36.55H311.783C312.293 36.55 312.758 36.31 313.178 35.83C313.598 35.32 313.643 34.615 313.313 33.715ZM330.957 9.37C331.797 9.37 332.532 9.4 333.162 9.46C333.792 9.52 334.332 9.595 334.782 9.685C335.262 9.745 335.667 9.835 335.997 9.955C336.357 10.045 336.672 10.135 336.942 10.225L336.987 14.68H336.447C336.447 13.45 336.027 12.49 335.187 11.8C334.347 11.08 333.042 10.72 331.272 10.72C329.772 10.72 328.482 11.14 327.402 11.98C326.352 12.79 325.842 13.795 325.872 14.995C325.872 15.385 325.917 15.79 326.007 16.21C326.127 16.6 326.307 16.99 326.547 17.38C326.817 17.77 327.177 18.16 327.627 18.55L336.717 25.57C337.407 26.14 337.917 26.875 338.247 27.775C338.577 28.645 338.757 29.515 338.787 30.385C338.817 31.705 338.472 32.92 337.752 34.03C337.032 35.14 336.057 36.025 334.827 36.685C333.627 37.315 332.292 37.63 330.822 37.63C329.952 37.63 329.007 37.555 327.987 37.405C326.997 37.255 326.067 37.03 325.197 36.73C324.327 36.4 323.607 35.995 323.037 35.515C322.947 35.095 322.902 34.57 322.902 33.94C322.902 33.28 322.947 32.59 323.037 31.87C323.157 31.15 323.307 30.505 323.487 29.935H324.027C323.907 31.285 324.102 32.44 324.612 33.4C325.122 34.36 325.872 35.095 326.862 35.605C327.852 36.085 329.007 36.31 330.327 36.28C332.187 36.22 333.642 35.755 334.692 34.885C335.772 33.985 336.312 32.8 336.312 31.33C336.312 30.61 336.177 29.965 335.907 29.395C335.667 28.795 335.262 28.24 334.692 27.73L325.692 20.8C324.852 20.08 324.282 19.285 323.982 18.415C323.682 17.545 323.532 16.72 323.532 15.94C323.532 14.71 323.862 13.6 324.522 12.61C325.182 11.62 326.067 10.84 327.177 10.27C328.317 9.67 329.577 9.37 330.957 9.37ZM336.897 9.775L336.942 10.585H333.747V9.775H336.897Z" fill="white"/>
</svg>
